<?xml version="1.0" encoding="UTF-8" standalone="no"?>
<svg xmlns="http://www.w3.org/2000/svg" version="1.0" width="3300.000000pt" height="2550.000000pt" viewBox="0 0 3300.000000 2550.000000" preserveAspectRatio="xMidYMid meet">
  <g transform="translate(0.000000,2550.000000) scale(0.100000,-0.100000)" fill="#000000" stroke="none">
    <path d="M28600 19822 c-9 -1 -131 -233 -295 -563 -154 -308 -284 -564 -290 -569 -5 -4 -73 -10 -150 -13 -147 -6 -310 -21 -385 -36 -138 -29 -281 -53 -285 -49 -2 2 -11 60 -20 128 -9 69 -20 154 -25 190 -5 36 -14 103 -20 150 -6 47 -22 164 -35 260 -13 96 -27 199 -30 228 -4 29 -13 56 -19 58 -15 6 -208 -65 -406 -149 -212 -89 -704 -340 -784 -400 -19 -14 -27 -59 -71 -442 -9 -71 -20 -164 -25 -205 -36 -289 -37 -295 -12 -285 70 28 286 73 482 102 209 30 615 22 785 -17 22 -5 74 -16 115 -26 77 -17 219 -58 255 -74 11 -5 56 -24 100 -41 261 -106 492 -264 725 -498 271 -271 491 -615 650 -1017 34 -85 115 -323 129 -379 5 -22 15 -58 21 -80 9 -37 29 -119 51 -220 32 -145 61 -328 85 -550 14 -127 18 -246 18 -570 1 -404 -2 -454 -40 -780 -79 -671 -270 -1362 -562 -2030 -156 -357 -409 -814 -611 -1105 -29 -41 -60 -86 -69 -100 -9 -14 -50 -70 -91 -125 -462 -618 -1048 -1151 -1625 -1479 -329 -188 -723 -345 -1051 -421 -38 -9 -88 -20 -110 -25 -50 -12 -199 -35 -325 -51 -52 -6 -198 -12 -325 -12 -226 0 -343 10 -546 47 -407 74 -840 273 -1179 542 -91 73 -345 320 -395 384 -16 22 -35 39 -42 40 -6 0 -125 -136 -264 -302 -139 -167 -292 -349 -341 -404 -48 -56 -88 -110 -88 -121 0 -24 119 -259 201 -395 122 -203 279 -427 376 -535 l38 -43 140 102 c77 56 264 192 415 303 151 110 281 205 289 209 9 6 44 -22 120 -97 117 -115 286 -254 411 -337 44 -30 79 -59 77 -65 -4 -10 -46 -142 -153 -485 -30 -96 -59 -186 -64 -200 -5 -14 -27 -86 -50 -160 -23 -74 -47 -150 -53 -167 -7 -21 -8 -36 -2 -42 20 -19 251 -133 425 -210 164 -72 565 -201 625 -201 7 0 64 87 126 193 203 347 282 483 359 612 29 50 62 107 74 128 21 38 22 38 66 32 165 -22 373 -35 555 -35 116 1 215 1 221 1 6 -1 14 -27 17 -58 4 -32 13 -107 21 -168 8 -60 24 -180 36 -265 51 -388 70 -521 75 -530 11 -18 398 45 615 99 224 57 250 64 416 121 82 29 157 54 167 57 22 7 19 -13 67 393 22 190 45 374 50 410 5 36 17 126 25 200 9 74 17 136 18 136 1 1 67 34 147 74 215 107 405 222 685 415 10 7 18 5 27 -7 7 -9 114 -146 239 -305 124 -158 246 -316 273 -351 l48 -62 37 29 c267 211 654 587 913 887 l88 102 -113 333 c-63 184 -138 404 -167 490 l-53 156 49 68 c205 282 359 519 502 770 44 77 86 141 95 143 8 2 196 -33 417 -77 222 -45 410 -81 419 -81 44 1 390 838 541 1305 23 72 45 139 50 151 4 11 5 25 2 31 -4 6 -160 119 -347 252 -187 132 -345 245 -352 251 -9 7 -5 36 17 117 15 60 33 133 40 163 7 30 16 71 20 90 20 86 60 296 80 410 33 200 39 240 50 328 5 46 12 87 15 92 3 4 40 27 83 50 42 24 100 55 127 70 28 15 131 71 230 125 99 54 200 109 225 122 25 14 83 46 130 70 47 25 91 51 99 58 18 18 40 424 41 760 0 236 -24 782 -35 793 -4 4 -127 -16 -295 -48 -25 -5 -72 -13 -105 -19 -33 -6 -96 -17 -140 -25 -44 -8 -111 -20 -150 -26 -38 -7 -101 -19 -139 -26 -76 -15 -86 -13 -86 19 0 21 -28 193 -49 307 -24 123 -66 294 -114 460 -27 96 -50 184 -51 195 0 11 43 81 95 155 98 138 284 403 493 703 93 133 117 173 112 191 -9 36 -132 309 -188 420 -103 200 -290 503 -376 609 -17 21 -32 43 -35 50 -5 16 -28 -3 -243 -204 -239 -222 -534 -494 -585 -538 l-40 -33 -97 94 c-138 133 -236 215 -378 314 -90 62 -123 91 -120 103 3 9 23 84 45 166 23 83 45 166 51 185 147 527 230 842 224 851 -14 23 -280 127 -447 175 -210 59 -546 119 -607 106z"></path>
    <path d="M26265 17884 c-233 -24 -585 -107 -740 -174 -11 -5 -78 -32 -150 -61 -565 -226 -1137 -627 -1681 -1180 -158 -161 -434 -473 -434 -491 0 -4 375 -8 833 -8 l833 0 54 56 c113 116 362 327 530 450 478 349 920 560 1415 674 81 19 234 40 368 50 279 21 599 -25 850 -124 48 -19 87 -31 87 -27 0 12 -153 183 -236 263 -450 436 -1068 641 -1729 572z"></path>
    <path d="M26810 15349 c-796 -90 -1480 -670 -1680 -1424 -111 -416 -85 -800 75 -1130 210 -433 616 -703 1150 -766 123 -15 420 -6 532 15 706 131 1258 576 1519 1225 45 111 90 279 109 411 19 121 21 360 5 470 -83 578 -468 1007 -1037 1155 -191 50 -463 68 -673 44z m325 -879 c188 -59 319 -168 398 -331 61 -124 82 -227 74 -369 -8 -137 -35 -242 -96 -365 -94 -189 -243 -340 -426 -430 -130 -64 -217 -86 -366 -92 -154 -7 -246 10 -364 67 -182 88 -308 250 -351 452 -20 92 -14 293 12 388 96 363 388 635 751 700 87 16 290 5 368 -20z"></path>
    <path d="M22115 15288 c-3 -13 -104 -729 -225 -1593 -121 -863 -222 -1582 -225 -1597 l-4 -28 662 0 c699 0 829 6 1019 45 736 151 1322 724 1476 1445 132 611 -68 1175 -526 1488 -222 152 -465 231 -774 252 -79 5 -425 10 -770 10 l-628 0 -5 -22z m1339 -848 c125 -32 201 -74 292 -165 132 -130 184 -263 184 -471 0 -405 -284 -766 -682 -865 -68 -17 -127 -21 -324 -26 -136 -3 -243 -2 -246 3 -3 5 43 349 103 764 60 415 108 761 109 768 0 9 56 12 243 12 210 0 254 -3 321 -20z"></path>
    <path d="M21830 11352 c0 -23 53 -258 80 -352 25 -91 100 -311 109 -325 4 -5 20 -41 36 -80 80 -196 223 -438 374 -635 107 -138 340 -369 471 -467 210 -157 452 -288 675 -367 246 -86 439 -125 742 -146 243 -18 582 14 848 80 44 11 88 20 98 20 9 0 17 4 17 8 0 4 -40 13 -89 20 -123 16 -334 72 -466 122 -559 212 -996 609 -1280 1164 -111 218 -189 427 -239 641 -9 39 -21 88 -26 110 -5 22 -17 82 -26 133 l-16 92 -654 0 c-618 0 -654 -1 -654 -18z"></path>
  </g>
</svg>
